HIERARCHY
ROOT Hips
{
	OFFSET -0.001795 -0.223333 0.028219
	CHANNELS 6 Xposition Yposition Zposition Zrotation Yrotation Xrotation 
	JOINT LeftUpLeg
	{
		OFFSET 0.069520 -0.091406 -0.006815
		CHANNELS 3 Zrotation Yrotation Xrotation
		JOINT LeftLeg
		{
			OFFSET 0.034277 -0.375199 -0.004496
			CHANNELS 3 Zrotation Yrotation Xrotation
			JOINT LeftFoot
			{
				OFFSET -0.013596 -0.397961 -0.043693
				CHANNELS 3 Zrotation Yrotation Xrotation
				JOINT LeftToe
				{
					OFFSET 0.026358 -0.055791 0.119288
					CHANNELS 3 Zrotation Yrotation Xrotation
					End Site
					{
						OFFSET 0.000000 0.000000 0.000000
					}
				}
			}
		}
	}
	JOINT RightUpLeg
	{
		OFFSET -0.067670 -0.090522 -0.004320
		CHANNELS 3 Zrotation Yrotation Xrotation
		JOINT RightLeg
		{
			OFFSET -0.038290 -0.382569 -0.008850
			CHANNELS 3 Zrotation Yrotation Xrotation
			JOINT RightFoot
			{
				OFFSET 0.015774 -0.398415 -0.042312
				CHANNELS 3 Zrotation Yrotation Xrotation
				JOINT RightToe
				{
					OFFSET -0.025372 -0.048144 0.123348
					CHANNELS 3 Zrotation Yrotation Xrotation
					End Site
					{
						OFFSET 0.000000 0.000000 0.000000
					}
				}
			}
		}
	}
	JOINT Spine
	{
		OFFSET -0.002533 0.108963 -0.026696
		CHANNELS 3 Zrotation Yrotation Xrotation
		JOINT Spine1
		{
			OFFSET 0.005487 0.135180 0.001092
			CHANNELS 3 Zrotation Yrotation Xrotation
			JOINT Spine2
			{
				OFFSET 0.001457 0.052922 0.025425
				CHANNELS 3 Zrotation Yrotation Xrotation
				JOINT Neck
				{
					OFFSET -0.002778 0.213870 -0.042857
					CHANNELS 3 Zrotation Yrotation Xrotation
					JOINT Head
					{
						OFFSET 0.005152 0.064970 0.051349
						CHANNELS 3 Zrotation Yrotation Xrotation
						End Site
						{
							OFFSET 0.000000 0.000000 0.000000
						}
					}
				}
				JOINT LeftShoulder
				{
					OFFSET 0.078845 0.121749 -0.034090
					CHANNELS 3 Zrotation Yrotation Xrotation
					JOINT LeftArm
					{
						OFFSET 0.090977 0.030469 -0.008868
						CHANNELS 3 Zrotation Yrotation Xrotation
						JOINT LeftForeArm
						{
							OFFSET 0.259612 -0.012772 -0.027456
							CHANNELS 3 Zrotation Yrotation Xrotation
							JOINT LeftHand
							{
								OFFSET 0.249234 0.008986 -0.001171
								CHANNELS 3 Zrotation Yrotation Xrotation
								End Site
								{
									OFFSET 0.000000 0.000000 0.000000
								}
							}
						}
					}
				}
				JOINT RightShoulder
				{
					OFFSET -0.081759 0.118833 -0.038615
					CHANNELS 3 Zrotation Yrotation Xrotation
					JOINT RightArm
					{
						OFFSET -0.096012 0.032551 -0.009143
						CHANNELS 3 Zrotation Yrotation Xrotation
						JOINT RightForeArm
						{
							OFFSET -0.253742 -0.013329 -0.021401
							CHANNELS 3 Zrotation Yrotation Xrotation
							JOINT RightHand
							{
								OFFSET -0.255298 0.007772 -0.005559
								CHANNELS 3 Zrotation Yrotation Xrotation
								End Site
								{
									OFFSET 0.000000 0.000000 0.000000
								}
							}
						}
					}
				}
			}
		}
	}
}
MOTION
Frames: 6
Frame Time: 0.050000
0.000000 0.947085 0.000000 -1.924648 -5.922075 2.100094 1.541108 0.339021 4.160057 0.712322 0.142454 -5.534968 3.184786 8.549506 8.305816 0.000000 0.000000 0.000000 -2.066501 0.084616 -0.043692 1.903066 -0.257789 -3.773958 0.736995 -3.461242 9.801717 0.000000 0.000000 0.000000 6.255723 -0.134654 0.584583 -4.927246 1.689092 -24.756791 -0.681950 6.979480 28.679346 10.322449 -4.735165 -21.516400 0.000000 0.000000 0.000000 -2.264530 -1.264911 0.280441 -51.233421 -1.523138 -7.834222 -2.539482 -30.973340 2.101900 0.000000 0.000000 0.000000 11.121056 -9.103473 -4.427288 60.186709 0.314327 -8.011834 6.730359 27.287551 3.116101 0.000000 0.000000 0.000000 
-0.000326 0.946720 -0.000016 -2.093047 -6.931809 2.612720 1.764455 0.363419 4.488448 0.395144 0.218260 -6.768263 4.020774 9.868536 7.651488 0.000000 0.000000 0.000000 -2.212174 0.137055 -0.568334 2.030164 -0.261406 -3.920408 1.169576 -3.026614 10.460472 0.000000 0.000000 0.000000 6.129646 -0.172536 0.918143 -5.066465 1.696114 -25.630809 -0.227198 7.439458 28.570883 10.929276 -5.169908 -21.394347 0.000000 0.000000 0.000000 -1.690224 -0.754936 0.134212 -51.617833 -1.554209 -7.859022 -2.176164 -29.896118 1.958010 0.000000 0.000000 0.000000 10.780404 -9.395859 -4.562105 61.074294 -1.488738 -8.975963 6.834427 28.371634 3.283275 0.000000 0.000000 0.000000 
-0.000581 0.946363 -0.000095 -1.754654 -6.505895 2.604942 1.750552 0.356287 4.433016 -0.025473 0.232155 -6.477068 3.678765 9.332190 7.975739 0.000000 0.000000 0.000000 -2.466108 0.117155 -0.183496 1.620709 -0.252998 -4.478689 1.423207 -2.424523 10.352946 0.000000 0.000000 0.000000 6.315397 -0.157883 0.723507 -5.232033 1.735827 -26.423846 -0.475431 7.377632 29.573511 10.416201 -4.563219 -22.827062 0.000000 0.000000 0.000000 -1.351450 -0.983753 0.237943 -51.827305 -0.682748 -8.347036 -1.778216 -31.086830 1.942667 0.000000 0.000000 0.000000 10.434244 -9.473290 -4.523817 61.267905 -1.513278 -9.079021 7.274499 27.595448 3.306381 0.000000 0.000000 0.000000 
-0.000886 0.946332 -0.000137 -1.853707 -6.498243 2.657541 2.012201 0.344508 4.433795 -0.015342 0.230765 -6.460135 3.719082 9.389307 7.887003 0.000000 0.000000 0.000000 -2.427785 0.108505 -0.086784 2.015305 -0.280755 -4.953839 1.233399 -2.922223 10.629007 0.000000 0.000000 0.000000 6.249343 -0.161082 0.759830 -5.349676 1.759722 -26.810968 -0.276382 7.235901 30.185989 9.819365 -4.291075 -22.414826 0.000000 0.000000 0.000000 -0.892787 -0.657310 0.151566 -52.584924 -0.640005 -8.514734 -1.599771 -31.145521 1.931969 0.000000 0.000000 0.000000 9.826982 -9.422642 -4.438113 61.599475 -2.221194 -9.521703 8.519417 27.343271 3.555094 0.000000 0.000000 0.000000 
-0.001306 0.946575 -0.000240 -1.827389 -6.420856 2.601614 2.008175 0.334188 4.311743 0.063267 0.221335 -6.352689 3.583816 9.114932 7.666495 0.000000 0.000000 0.000000 -2.299737 0.094062 0.023438 1.691817 -0.269490 -5.117652 0.932298 -3.451052 10.509669 0.000000 0.000000 0.000000 6.013685 -0.170783 0.911607 -4.797321 1.640086 -26.551609 -0.254512 7.630626 29.840060 9.602126 -4.151017 -21.886089 0.000000 0.000000 0.000000 -0.734766 -0.905247 0.241328 -52.671452 -0.724921 -8.494306 -1.865920 -30.890958 1.940037 0.000000 0.000000 0.000000 9.469772 -9.535058 -4.408502 61.730024 -2.624124 -9.641511 8.484015 27.024849 3.517456 0.000000 0.000000 0.000000 
-0.001773 0.946680 -0.000290 -1.967095 -6.201332 2.696549 2.259401 0.312055 4.203329 -0.040162 0.223275 -6.239569 3.671045 9.255678 7.490142 0.000000 0.000000 0.000000 -2.156929 0.082891 0.078567 1.692109 -0.275272 -5.347356 0.980358 -3.318211 10.487943 0.000000 0.000000 0.000000 5.974207 -0.168926 0.875117 -4.833778 1.650476 -26.520551 0.038205 7.213050 30.174299 9.114911 -3.845736 -22.135690 0.000000 0.000000 0.000000 -0.699096 -0.584358 0.133875 -52.393854 -1.104742 -8.298559 -1.731392 -30.331798 1.888905 0.000000 0.000000 0.000000 9.059566 -9.221817 -4.243940 61.675004 -2.762332 -9.742430 8.288085 26.820866 3.417143 0.000000 0.000000 0.000000 
